<svg height="24" viewBox="0 0 24 24" width="24" xmlns="http://www.w3.org/2000/svg">
    <path d="M 5 3 C 3.9 3 3 3.9 3 5 L 3 19 C 3 20.1 3.9 21 5 21 L 19 21 C 20.1 21 21 20.1 21 19 L 21 5 C 21 3.9 20.1 3 19 3 L 5 3 z M 5 5 L 19 5 L 19 19 L 5 19 L 5 5 z M 8 6.7792969 A 1.2211982 1.2211982 0 0 0 6.7792969 8 A 1.2211982 1.2211982 0 0 0 8 9.2207031 A 1.2211982 1.2211982 0 0 0 9.2207031 8 A 1.2211982 1.2211982 0 0 0 8 6.7792969 z M 12 6.7792969 A 1.2211982 1.2211982 0 0 0 10.779297 8 A 1.2211982 1.2211982 0 0 0 12 9.2207031 A 1.2211982 1.2211982 0 0 0 13.220703 8 A 1.2211982 1.2211982 0 0 0 12 6.7792969 z M 16 6.7792969 A 1.2211982 1.2211982 0 0 0 14.779297 8 A 1.2211982 1.2211982 0 0 0 16 9.2207031 A 1.2211982 1.2211982 0 0 0 17.220703 8 A 1.2211982 1.2211982 0 0 0 16 6.7792969 z M 7 11 L 7 12 C 7 14.749579 9.2504209 17 12 17 C 14.749579 17 17 14.749579 17 12 L 17 11 L 15 11 L 15 12 C 15 13.668699 13.668699 15 12 15 C 10.331301 15 9 13.668699 9 12 L 9 11 L 7 11 z " />
    <path d="M0 0h24v24H0z" fill="none"/>
</svg>