<svg height="24" viewBox="0 0 24 24" width="24" xmlns="http://www.w3.org/2000/svg">
    <path d="M0 0h24v24H0z" fill="none"/>
    <path
       d="m 11.999985,4 c -4.4330827,0 -8.0273528,3.5942707 -8.0273528,8.028339 0,3.546956 2.3000769,6.555736 5.4902202,7.617802 0.4016632,0.07342 0.5480356,-0.174464 0.5480356,-0.387371 0,-0.190235 -0.0067,-0.695394 -0.01089,-1.365163 -2.233007,0.484954 -2.7041603,-1.076359 -2.7041603,-1.076359 -0.3651933,-0.927027 -0.8915448,-1.17394 -0.8915448,-1.17394 -0.7289082,-0.49826 0.0552,-0.488405 0.0552,-0.488405 0.8057908,0.05717 1.2296325,0.827479 1.2296325,0.827479 0.7160936,1.226674 1.879192,0.872323 2.3365476,0.667303 0.07294,-0.518959 0.279931,-0.872817 0.509594,-1.073403 -1.7825969,-0.202557 -3.6568612,-0.891545 -3.6568612,-3.967844 0,-0.876265 0.3129522,-1.592853 0.82649,-2.1541954 -0.082798,-0.2030492 -0.3582936,-1.0191896 0.078361,-2.1246261 0,0 0.674203,-0.2158632 2.2079171,0.8230399 0.6401971,-0.1779141 1.3272131,-0.2671182 2.0097951,-0.2700751 0.681595,0.00295 1.36861,0.092161 2.009796,0.2700751 1.532726,-1.0389031 2.205451,-0.8230399 2.205451,-0.8230399 0.438133,1.1054365 0.162634,1.9215769 0.07982,2.1246261 0.514524,0.5613424 0.825505,1.2779304 0.825505,2.1541954 0,3.084184 -1.877222,3.762822 -3.665733,3.961437 0.288311,0.247898 0.545081,0.73778 0.545081,1.486893 0,1.07291 -0.0099,1.938827 -0.0099,2.202002 0,0.214876 0.144401,0.464747 0.551979,0.386386 3.187678,-1.064038 5.485783,-4.070845 5.485783,-7.616817 C 20.02875,7.5942707 16.433986,4 11.999921,4" />
</svg>
